<svg xmlns="http://www.w3.org/2000/svg" viewBox="0 0 1200 675" preserveAspectRatio="xMidYMid slice">
  <defs>
    <radialGradient id="g1" cx="20%" cy="30%" r="45%">
      <stop offset="0%" stop-color="#eca8d6" stop-opacity="0.5"/>
      <stop offset="100%" stop-color="#eca8d6" stop-opacity="0"/>
    </radialGradient>
    <radialGradient id="g2" cx="80%" cy="70%" r="50%">
      <stop offset="0%" stop-color="#a78bfa" stop-opacity="0.4"/>
      <stop offset="100%" stop-color="#a78bfa" stop-opacity="0"/>
    </radialGradient>
    <filter id="blur3"><feGaussianBlur stdDeviation="3"/></filter>
  </defs>

  <rect width="1200" height="675" fill="none"/>
  <rect width="1200" height="675" fill="url(#g1)"/>
  <rect width="1200" height="675" fill="url(#g2)"/>

  <!-- layered signal waves -->
  <g fill="none" filter="url(#blur3)">
    <path d="M0 420 C 150 380, 250 460, 400 430 S 650 350, 800 400 S 1050 470, 1200 410"
          stroke="#eca8d6" stroke-opacity="0.5" stroke-width="2"/>
    <path d="M0 480 C 180 450, 300 510, 460 485 S 700 420, 860 460 S 1080 520, 1200 470"
          stroke="#ffffff" stroke-opacity="0.3" stroke-width="1.5"/>
    <path d="M0 350 C 200 330, 320 390, 500 360 S 760 290, 920 340 S 1100 390, 1200 350"
          stroke="#a78bfa" stroke-opacity="0.35" stroke-width="1.5"/>
  </g>

  <!-- scattered telemetry points -->
  <g fill="#ffffff">
    <circle cx="150" cy="180" r="3" opacity="0.5"/>
    <circle cx="340" cy="120" r="2" opacity="0.35"/>
    <circle cx="520" cy="200" r="2.5" opacity="0.45"/>
    <circle cx="700" cy="140" r="2" opacity="0.3"/>
    <circle cx="880" cy="190" r="3" opacity="0.5"/>
    <circle cx="1060" cy="130" r="2" opacity="0.35"/>
    <circle cx="240" cy="580" r="2.5" opacity="0.4"/>
    <circle cx="620" cy="600" r="2" opacity="0.3"/>
    <circle cx="980" cy="580" r="2.5" opacity="0.4"/>
  </g>
  <g fill="#eca8d6">
    <circle cx="430" cy="160" r="3.5" opacity="0.7"/>
    <circle cx="790" cy="560" r="3" opacity="0.6"/>
  </g>
</svg>
